<svg width="21" height="20" viewBox="0 0 21 20" fill="none" xmlns="http://www.w3.org/2000/svg">
<path d="M10.5 20C4.977 20 0.5 15.523 0.5 10C0.5 4.477 4.977 0 10.5 0C16.023 0 20.5 4.477 20.5 10C20.5 15.523 16.023 20 10.5 20ZM10.5 18C12.6217 18 14.6566 17.1571 16.1569 15.6569C17.6571 14.1566 18.5 12.1217 18.5 10C18.5 7.87827 17.6571 5.84344 16.1569 4.34315C14.6566 2.84285 12.6217 2 10.5 2C8.37827 2 6.34344 2.84285 4.84315 4.34315C3.34285 5.84344 2.5 7.87827 2.5 10C2.5 12.1217 3.34285 14.1566 4.84315 15.6569C6.34344 17.1571 8.37827 18 10.5 18V18ZM9.122 6.415L14.001 9.667C14.0559 9.70351 14.1009 9.75302 14.132 9.81111C14.1631 9.86921 14.1794 9.93409 14.1794 10C14.1794 10.0659 14.1631 10.1308 14.132 10.1889C14.1009 10.247 14.0559 10.2965 14.001 10.333L9.121 13.585C9.06083 13.6249 8.99098 13.6477 8.91887 13.6512C8.84676 13.6546 8.77507 13.6384 8.71141 13.6043C8.64774 13.5703 8.59448 13.5197 8.55726 13.4578C8.52004 13.396 8.50025 13.3252 8.5 13.253V6.747C8.50013 6.67465 8.51989 6.60369 8.55716 6.54168C8.59443 6.47967 8.64782 6.42893 8.71165 6.39486C8.77547 6.36079 8.84734 6.34467 8.91961 6.34822C8.99187 6.35177 9.06182 6.37485 9.122 6.415V6.415Z" fill="#222222"/>
</svg>
