<svg width="39" height="39" viewBox="0 0 39 39" fill="none" xmlns="http://www.w3.org/2000/svg">
<g clip-path="url(#clip0_1178_697)">
<path d="M19.5 0C8.73081 0 0 8.73041 0 19.5C0 30.2696 8.73081 39 19.5 39C30.2692 39 39 30.2696 39 19.5C39 8.73041 30.2692 0 19.5 0ZM3.08768 24.8048C3.07691 24.8818 3.02145 24.9361 2.95203 24.9361C2.88221 24.9361 2.82635 24.8818 2.81678 24.804L2.56901 22.9555L2.81678 21.0752C2.82595 20.997 2.88221 20.9423 2.95203 20.9423C3.02145 20.9423 3.07691 20.9966 3.08768 21.074L3.38133 22.9559L3.08768 24.8048ZM4.34606 25.9299C4.33409 26.0097 4.27584 26.0664 4.20482 26.0664C4.133 26.0664 4.07395 26.0089 4.06398 25.9295L3.73123 22.9555L4.06398 19.9145C4.07355 19.8351 4.133 19.7773 4.20482 19.7773C4.27624 19.7773 4.33409 19.8335 4.34606 19.9145L4.72429 22.9555L4.34606 25.9299ZM5.70457 26.433C5.6942 26.5292 5.62278 26.5986 5.53461 26.5986C5.44524 26.5986 5.37422 26.5292 5.36504 26.4322L5.04905 22.9563C5.04905 22.9563 5.36504 19.3484 5.36504 19.348C5.37382 19.2518 5.44524 19.182 5.53461 19.182C5.62278 19.182 5.6938 19.2518 5.70457 19.348L6.06325 22.9563L5.70457 26.433ZM7.07466 26.5435C7.06508 26.6541 6.9797 26.7382 6.87637 26.7382C6.77104 26.7382 6.68526 26.6541 6.67688 26.5435L6.37845 22.9571L6.67688 19.2498C6.68526 19.1381 6.77104 19.0543 6.87637 19.0543C6.9797 19.0543 7.06508 19.1381 7.07466 19.2486L7.41379 22.9567L7.07466 26.5435ZM8.45552 26.5735C8.44714 26.7003 8.34859 26.7977 8.2281 26.7977C8.10641 26.7977 8.00827 26.7007 8.00029 26.5735L7.71861 22.9575L8.00029 19.5188C8.00866 19.3907 8.10681 19.2941 8.2281 19.2941C8.34899 19.2941 8.44714 19.3907 8.45552 19.5176L8.7751 22.9579L8.45552 26.5735ZM9.84755 26.5747V26.5731C9.83917 26.7147 9.72706 26.8268 9.59101 26.8268C9.45376 26.8268 9.34165 26.7151 9.33407 26.5739L9.07034 22.9583L9.33407 17.3631C9.34165 17.2206 9.45376 17.1093 9.59101 17.1093C9.72706 17.1093 9.83917 17.2206 9.84755 17.3627L10.1468 22.9583L9.84755 26.5747ZM11.2292 26.5719V26.5699C11.222 26.7287 11.0963 26.8523 10.9435 26.8523C10.7903 26.8523 10.6651 26.7287 10.6591 26.5711L10.4109 22.9775C10.4109 22.9775 10.6579 16.1035 10.6579 16.1031C10.6651 15.9447 10.7903 15.8206 10.9435 15.8206C11.0963 15.8206 11.222 15.9447 11.2292 16.1031L11.5089 22.9775L11.2292 26.5719ZM12.6635 26.5168V26.5148C12.6563 26.6896 12.5191 26.8256 12.3499 26.8256C12.1796 26.8256 12.0415 26.6892 12.0355 26.5164L11.8053 22.9599C11.8053 22.9599 12.0355 15.5122 12.0355 15.5114C12.0415 15.3367 12.1796 15.1998 12.3499 15.1998C12.5191 15.1998 12.6567 15.3367 12.6635 15.5114L12.9237 22.9599L12.6635 26.5168ZM14.0883 26.4929C14.0827 26.6836 13.9315 26.8332 13.7456 26.8332C13.558 26.8332 13.408 26.6836 13.4032 26.4945L13.1894 22.9603L13.4024 15.2613C13.4084 15.0702 13.5584 14.9201 13.7456 14.9201C13.9319 14.9201 14.0831 15.0698 14.0883 15.2613L14.3289 22.9607L14.0883 26.4929ZM15.5234 26.4621V26.4594C15.5178 26.6664 15.3546 26.83 15.1516 26.83C14.9477 26.83 14.7845 26.6664 14.7801 26.4613L14.5834 22.9611L14.7789 15.4584C14.7845 15.2509 14.9477 15.0885 15.1516 15.0885C15.3546 15.0885 15.5178 15.2505 15.5234 15.4576L15.7448 22.9611L15.5234 26.4621ZM16.9701 26.4402V26.4378C16.9657 26.6616 16.7894 26.8368 16.5691 26.8368C16.3493 26.8368 16.1725 26.6616 16.1681 26.4402L15.989 22.9615L16.1681 15.7325C16.1725 15.5086 16.3493 15.3335 16.5691 15.3335C16.7894 15.3335 16.9657 15.509 16.9701 15.7325L17.1708 22.9623L16.9701 26.4402ZM18.4455 26.0747L18.4275 26.4155C18.4256 26.5332 18.3757 26.6401 18.2983 26.7179C18.2205 26.7949 18.1144 26.8432 17.9979 26.8432C17.8666 26.8432 17.7485 26.7825 17.6691 26.6876C17.6108 26.6174 17.5737 26.5284 17.5694 26.4318C17.5686 26.427 17.5682 26.4226 17.5682 26.4171C17.5682 26.4171 17.4054 22.9643 17.4054 22.9591L17.5666 14.4402L17.5682 14.3592C17.5701 14.2088 17.6487 14.0767 17.7664 14.0005C17.8331 13.9566 17.9121 13.9307 17.9979 13.9307C18.0848 13.9307 18.167 13.9578 18.2352 14.0041C18.349 14.0811 18.4252 14.2112 18.4275 14.3588L18.6079 22.9615L18.4455 26.0747ZM19.879 26.3692V26.3684V26.3652C19.8738 26.617 19.6696 26.8224 19.4202 26.8224C19.17 26.8224 18.9642 26.6169 18.961 26.3684L18.8684 24.6891L18.7735 22.9635L18.9606 13.6287L18.9614 13.5816C18.963 13.4395 19.0292 13.3127 19.1317 13.2285C19.2103 13.163 19.3113 13.1239 19.421 13.1239C19.5064 13.1239 19.5862 13.1483 19.6544 13.1898C19.7861 13.27 19.8774 13.4152 19.8798 13.5808L20.0829 22.9639L19.879 26.3692ZM32.2661 26.8312C32.2661 26.8312 20.732 26.8324 20.7209 26.8312C20.4715 26.8065 20.2736 26.6082 20.2712 26.3532C20.2712 26.3532 20.2712 13.1347 20.2712 13.1343C20.2736 12.8913 20.357 12.7665 20.6718 12.6448C21.4797 12.3316 22.3962 12.1469 23.3354 12.1469C27.1763 12.1469 30.3234 15.0913 30.6554 18.8445C31.1509 18.637 31.6951 18.5213 32.2661 18.5213C34.567 18.5213 36.4306 20.3861 36.4306 22.6862C36.431 24.9863 34.567 26.8312 32.2661 26.8312Z" fill="black"/>
</g>
<defs>
<clipPath id="clip0_1178_697">
<rect width="39" height="39" fill="white"/>
</clipPath>
</defs>
</svg>
