<svg width="39" height="39" viewBox="0 0 39 39" fill="none" xmlns="http://www.w3.org/2000/svg">
<g clip-path="url(#clip0_1178_681)">
<path d="M23.2324 19.5C23.2324 21.5614 21.5614 23.2324 19.5 23.2324C17.4386 23.2324 15.7676 21.5614 15.7676 19.5C15.7676 17.4386 17.4386 15.7676 19.5 15.7676C21.5614 15.7676 23.2324 17.4386 23.2324 19.5Z" fill="black"/>
<path d="M28.229 12.8963C28.0496 12.4101 27.7634 11.97 27.3914 11.6088C27.0302 11.2368 26.5904 10.9506 26.104 10.7712C25.7094 10.618 25.1167 10.4356 24.025 10.3859C22.844 10.332 22.49 10.3204 19.5002 10.3204C16.5102 10.3204 16.1561 10.3317 14.9754 10.3856C13.8837 10.4356 13.2907 10.618 12.8965 10.7712C12.41 10.9506 11.9699 11.2368 11.609 11.6088C11.2371 11.97 10.9508 12.4098 10.7711 12.8963C10.6179 13.2908 10.4355 13.8838 10.3858 14.9755C10.3319 16.1562 10.3203 16.5103 10.3203 19.5003C10.3203 22.4901 10.3319 22.8441 10.3858 24.0251C10.4355 25.1168 10.6179 25.7095 10.7711 26.104C10.9508 26.5905 11.2368 27.0303 11.6087 27.3915C11.9699 27.7635 12.4097 28.0497 12.8962 28.2291C13.2907 28.3827 13.8837 28.5651 14.9754 28.6147C16.1561 28.6686 16.5099 28.6799 19.4999 28.6799C22.4903 28.6799 22.8443 28.6686 24.0247 28.6147C25.1164 28.5651 25.7094 28.3827 26.104 28.2291C27.0805 27.8524 27.8523 27.0806 28.229 26.104C28.3823 25.7095 28.5647 25.1168 28.6147 24.0251C28.6685 22.8441 28.6798 22.4901 28.6798 19.5003C28.6798 16.5103 28.6685 16.1562 28.6147 14.9755C28.565 13.8838 28.3826 13.2908 28.229 12.8963V12.8963ZM19.5002 25.2498C16.3245 25.2498 13.7501 22.6757 13.7501 19.5C13.7501 16.3243 16.3245 13.7502 19.5002 13.7502C22.6756 13.7502 25.25 16.3243 25.25 19.5C25.25 22.6757 22.6756 25.2498 19.5002 25.2498ZM25.4773 14.8666C24.7352 14.8666 24.1336 14.265 24.1336 13.5229C24.1336 12.7808 24.7352 12.1792 25.4773 12.1792C26.2194 12.1792 26.821 12.7808 26.821 13.5229C26.8207 14.265 26.2194 14.8666 25.4773 14.8666Z" fill="black"/>
<path d="M19.5 0C8.73209 0 0 8.73209 0 19.5C0 30.2679 8.73209 39 19.5 39C30.2679 39 39 30.2679 39 19.5C39 8.73209 30.2679 0 19.5 0ZM30.6297 24.1164C30.5756 25.3084 30.386 26.1222 30.1093 26.8345C29.5276 28.3386 28.3386 29.5276 26.8345 30.1093C26.1225 30.386 25.3084 30.5753 24.1167 30.6297C22.9227 30.6842 22.5412 30.6973 19.5003 30.6973C16.4591 30.6973 16.0779 30.6842 14.8836 30.6297C13.6919 30.5753 12.8778 30.386 12.1658 30.1093C11.4183 29.8281 10.7417 29.3875 10.1823 28.8177C9.61283 28.2586 9.17216 27.5817 8.89098 26.8345C8.61427 26.1225 8.42473 25.3084 8.37057 24.1167C8.31553 22.9224 8.30273 22.5409 8.30273 19.5C8.30273 16.4591 8.31553 16.0776 8.37028 14.8836C8.42443 13.6916 8.61367 12.8778 8.89039 12.1655C9.17157 11.4183 9.61253 10.7414 10.1823 10.1823C10.7414 9.61253 11.4183 9.17187 12.1655 8.89069C12.8778 8.61397 13.6916 8.42473 14.8836 8.37028C16.0776 8.31583 16.4591 8.30273 19.5 8.30273C22.5409 8.30273 22.9224 8.31583 24.1164 8.37057C25.3084 8.42473 26.1222 8.61397 26.8345 8.89039C27.5817 9.17157 28.2586 9.61253 28.818 10.1823C29.3875 10.7417 29.8284 11.4183 30.1093 12.1655C30.3863 12.8778 30.5756 13.6916 30.63 14.8836C30.6845 16.0776 30.6973 16.4591 30.6973 19.5C30.6973 22.5409 30.6845 22.9224 30.6297 24.1164V24.1164Z" fill="black"/>
</g>
<defs>
<clipPath id="clip0_1178_681">
<rect width="39" height="39" fill="white"/>
</clipPath>
</defs>
</svg>
