<svg width="39" height="39" viewBox="0 0 39 39" fill="none" xmlns="http://www.w3.org/2000/svg">
<g clip-path="url(#clip0_1178_690)">
<path d="M17.0713 23.1533L23.4144 19.5L17.0713 15.8467V23.1533Z" fill="black"/>
<path d="M19.5 0C8.73209 0 0 8.73209 0 19.5C0 30.2679 8.73209 39 19.5 39C30.2679 39 39 30.2679 39 19.5C39 8.73209 30.2679 0 19.5 0ZM31.6845 19.5199C31.6845 19.5199 31.6845 23.4746 31.1829 25.3816C30.9017 26.4254 30.0787 27.2484 29.0349 27.5293C27.1279 28.0313 19.5 28.0312 19.5 28.0312C19.5 28.0312 11.892 28.0312 9.96513 27.5094C8.92133 27.2285 8.09832 26.4052 7.81714 25.3614C7.31518 23.4746 7.31518 19.5 7.31518 19.5C7.31518 19.5 7.31518 15.5456 7.81714 13.6386C8.09802 12.5948 8.94127 11.7516 9.96513 11.4707C11.8721 10.9687 19.5 10.9688 19.5 10.9688C19.5 10.9688 27.1279 10.9688 29.0349 11.4906C30.0787 11.7715 30.9017 12.5948 31.1829 13.6386C31.7048 15.5456 31.6845 19.5199 31.6845 19.5199V19.5199Z" fill="black"/>
</g>
<defs>
<clipPath id="clip0_1178_690">
<rect width="39" height="39" fill="white"/>
</clipPath>
</defs>
</svg>
