<svg width="39" height="39" viewBox="0 0 39 39" fill="none" xmlns="http://www.w3.org/2000/svg">
<g clip-path="url(#clip0_1178_694)">
<path d="M19.5 39C30.2721 39 39 30.2721 39 19.5C39 8.72787 30.2721 0 19.5 0C8.72787 0 0 8.72787 0 19.5C0 30.2721 8.72787 39 19.5 39ZM8.92288 19.0775L27.7241 11.8284C28.5968 11.5131 29.3589 12.0413 29.0761 13.3608L29.0777 13.3591L25.8765 28.4408C25.6392 29.51 25.0039 29.77 24.115 29.2663L19.24 25.6734L16.8886 27.9386C16.6286 28.1986 16.4093 28.418 15.9055 28.418L16.2516 23.4569L25.2866 15.2945C25.6799 14.9484 25.1989 14.7534 24.6805 15.0979L13.5151 22.1276L8.70188 20.6261C7.657 20.2946 7.63425 19.5812 8.92288 19.0775V19.0775Z" fill="black"/>
</g>
<defs>
<clipPath id="clip0_1178_694">
<rect width="39" height="39" fill="white"/>
</clipPath>
</defs>
</svg>
