<svg width="39" height="39" viewBox="0 0 39 39" fill="none" xmlns="http://www.w3.org/2000/svg">
<g clip-path="url(#clip0_1178_686)">
<path d="M19.5 0C8.73081 0 0 8.73041 0 19.5C0 30.2696 8.73081 39 19.5 39C30.2692 39 39 30.2696 39 19.5C39 8.73041 30.2692 0 19.5 0ZM29.3914 21.609C30.3003 22.4967 31.2618 23.3322 32.0777 24.3117C32.4392 24.745 32.7799 25.193 33.0393 25.6969C33.4095 26.4155 33.0752 27.2034 32.432 27.2461L28.4371 27.2453C27.4053 27.3307 26.5842 26.9146 25.892 26.2092C25.3394 25.647 24.8267 25.0466 24.2945 24.4653C24.0771 24.2267 23.8481 24.0021 23.5752 23.8253C23.0305 23.471 22.5574 23.5795 22.2454 24.1485C21.9274 24.7274 21.8548 25.369 21.8244 26.0133C21.781 26.9553 21.4969 27.2015 20.5517 27.2457C18.5321 27.3403 16.6158 27.0339 14.8348 26.0157C13.2636 25.1176 12.0475 23.85 10.9878 22.4149C8.92432 19.6173 7.34397 16.5468 5.92401 13.3881C5.60443 12.6767 5.83823 12.2961 6.62302 12.2813C7.92687 12.2562 9.23073 12.2594 10.5346 12.2801C11.0652 12.2885 11.4163 12.5921 11.6202 13.0928C12.3248 14.8264 13.1886 16.4758 14.271 18.0054C14.5595 18.4128 14.8539 18.8189 15.2732 19.1066C15.7361 19.4242 16.0887 19.3193 16.307 18.8026C16.4466 18.4742 16.5069 18.1231 16.5372 17.7712C16.6409 16.5659 16.6533 15.361 16.4738 14.1605C16.362 13.4092 15.9395 12.9241 15.1907 12.782C14.8092 12.7098 14.8651 12.5686 15.0506 12.3507C15.3726 11.9741 15.6742 11.7411 16.2771 11.7411L20.7907 11.7403C21.5021 11.8799 21.6617 12.1991 21.7582 12.9157L21.7622 17.9316C21.7538 18.2089 21.9014 19.0308 22.3994 19.2123C22.7983 19.344 23.0617 19.024 23.3003 18.7715C24.3827 17.6228 25.1539 16.2671 25.8445 14.8639C26.1494 14.2451 26.4123 13.6047 26.6676 12.9632C26.8575 12.4888 27.1528 12.2554 27.6882 12.2634L32.0347 12.2685C32.1627 12.2685 32.2928 12.2697 32.4197 12.2917C33.1522 12.417 33.3529 12.7322 33.1263 13.4467C32.7696 14.5694 32.0766 15.5046 31.3991 16.4422C30.673 17.4461 29.8985 18.4148 29.1796 19.423C28.5189 20.3446 28.5711 20.8086 29.3914 21.609V21.609Z" fill="black"/>
</g>
<defs>
<clipPath id="clip0_1178_686">
<rect width="39" height="39" fill="white"/>
</clipPath>
</defs>
</svg>
